# xmcd
# Track frame offsets:
# 150
# 18945
# 34667
# 54920
# 67177
# 86737
# 100647
# 117812
# 136350
# 152575
# 171572
# 183682
# 198985
#
# Disc length: 2850 seconds
# Revision: 0
# Processed by: cddbd v1.4PL0 Copyright (c) Steve Scherf et al.
# Submitted via: VisiTrax 2.9.5.180 - For more info visit www.synapsa.com
#
DISCID=ad0b200d
DTITLE=Jimmy Dobro - Country special
DYEAR=1900
DGENRE=
TTITLE0=Load me up
TTITLE1=Gambling fever
TTITLE2=Lisa Brown
TTITLE3=Don't go down
TTITLE4=Only she knows
TTITLE5=T. I. A. trucker
TTITLE6=The last whiskey
TTITLE7=The way you looked
TTITLE8=Where I belong
TTITLE9=Freedom means
TTITLE10=Tell her please
TTITLE11=Trucker's daughter
TTITLE12=I'm free
EXTD=
EXTT0=
EXTT1=
EXTT2=
EXTT3=
EXTT4=
EXTT5=
EXTT6=
EXTT7=
EXTT8=
EXTT9=
EXTT10=
EXTT11=
EXTT12=
PLAYORDER=
